<svg xmlns="http://www.w3.org/2000/svg" width="152" height="18" viewBox="0 0 152 18" fill="none">
  <path d="M0 1.34326H11.1957V3.65737H6.79922V16.6279H4.37505V3.65737H0V1.34326Z" fill="#0A243A"/>
  <path d="M19.8154 11.7251C19.8138 12.1445 19.8691 12.5619 19.9797 12.9639C20.0795 13.3438 20.2468 13.699 20.4724 14.0095C20.6981 14.3134 20.9835 14.5592 21.3077 14.729C21.6828 14.9165 22.0928 15.0079 22.5057 14.9962C23.0577 15.0232 23.6037 14.8625 24.0671 14.5366C24.4891 14.1897 24.7985 13.7066 24.9507 13.157H27.039C26.9347 13.728 26.7299 14.2718 26.4356 14.7588C26.163 15.2189 25.8149 15.621 25.4086 15.9453C25.0004 16.2687 24.5442 16.5142 24.0597 16.6714C23.5533 16.8361 23.0271 16.9186 22.4984 16.9161C21.7822 16.9326 21.0707 16.7862 20.4101 16.4862C19.8181 16.2185 19.2906 15.8074 18.8681 15.2845C18.4366 14.7495 18.1124 14.1232 17.9162 13.4453C17.6972 12.6851 17.5895 11.8925 17.597 11.0963C17.595 10.3344 17.7108 9.57748 17.9396 8.85698C18.1521 8.17695 18.4794 7.54563 18.905 6.99523C19.3247 6.4607 19.8422 6.02629 20.4248 5.71946C21.0538 5.40038 21.7416 5.2407 22.436 5.25257C23.1747 5.24143 23.9042 5.43011 24.5585 5.80151C25.1722 6.15206 25.7063 6.64614 26.1219 7.24792C26.5444 7.86757 26.8514 8.57048 27.0256 9.31733C27.2109 10.1041 27.2595 10.9213 27.1691 11.7273H19.8094L19.8154 11.7251ZM24.9648 10.1233C24.9384 9.7428 24.8624 9.36827 24.7388 9.01091C24.625 8.66801 24.4531 8.3511 24.232 8.07641C24.0146 7.80964 23.752 7.59051 23.4584 7.4309C23.1428 7.26475 22.7956 7.18095 22.4447 7.1862C22.083 7.18246 21.7243 7.25804 21.3902 7.40839C21.0811 7.55145 20.8035 7.76377 20.5756 8.03139C20.3448 8.30502 20.1615 8.62161 20.0346 8.96589C19.8956 9.33378 19.8192 9.72593 19.8094 10.1233H24.9587H24.9648Z" fill="#0A243A"/>
  <path d="M43.3628 9.26277C43.3388 8.96389 43.2605 8.67309 43.1325 8.40705C43.0045 8.14102 42.8292 7.905 42.6167 7.71253C42.1745 7.34897 41.6295 7.16291 41.0748 7.1861C40.7653 7.18901 40.4581 7.24413 40.1644 7.34947C39.8269 7.46811 39.5212 7.67425 39.2741 7.94996C38.9669 8.29809 38.7353 8.71608 38.5963 9.17346C38.3958 9.83332 38.303 10.526 38.3221 11.2204C38.3225 11.6819 38.3706 12.142 38.4656 12.592C38.5542 13.026 38.7119 13.44 38.9315 13.8155C39.1391 14.1703 39.4206 14.4675 39.7534 14.6832C40.1228 14.9157 40.5451 15.0314 40.9722 15.0172C41.2659 15.0279 41.5586 14.9744 41.8328 14.8597C42.1069 14.7451 42.3569 14.5717 42.5677 14.3499C43.0135 13.841 43.2906 13.1861 43.3555 12.4881H45.5604C45.4393 13.7439 44.9161 14.9141 44.0815 15.7956C43.2173 16.591 42.1055 16.9995 40.9729 16.9377C40.2596 16.952 39.5515 16.8036 38.8946 16.5021C38.312 16.2285 37.7929 15.818 37.3748 15.3004C36.9517 14.7726 36.6323 14.1569 36.4362 13.4909C36.2177 12.758 36.1091 11.9919 36.1144 11.2218C36.1107 10.431 36.2147 9.64391 36.4228 8.88592C36.6107 8.19424 36.9276 7.55168 37.354 6.99803C37.7728 6.45637 38.3002 6.02527 38.896 5.73751C39.5736 5.41753 40.3068 5.25905 41.0459 5.2728C41.6062 5.26986 42.1641 5.35223 42.7032 5.5175C43.2072 5.66878 43.681 5.92016 44.1003 6.25885C44.5104 6.59147 44.8515 7.01345 45.1019 7.4976C45.3741 8.04741 45.533 8.65457 45.5678 9.27729H43.3628V9.26277Z" fill="#0A243A"/>
  <path d="M55.1191 1.34326H57.3241V7.01636H57.365C57.6625 6.49237 58.08 6.06063 58.5771 5.76309C59.1227 5.42436 59.7422 5.2501 60.3711 5.25845C61.3147 5.20076 62.2426 5.5382 62.9628 6.20094C63.297 6.57214 63.5547 7.01591 63.7188 7.50294C63.8829 7.98996 63.9497 8.50916 63.9148 9.02623V16.6279H61.7132V9.67174C61.7434 8.99884 61.565 8.33433 61.2064 7.78386C61.0199 7.57553 60.7928 7.41485 60.5417 7.31349C60.2907 7.21213 60.0219 7.17264 59.755 7.19788C59.4088 7.19117 59.0655 7.26702 58.7494 7.42007C58.4587 7.56437 58.2015 7.77723 57.9965 8.04308C57.783 8.3197 57.6183 8.63646 57.5105 8.97758C57.3939 9.34249 57.3361 9.72637 57.3395 10.1125V16.6351H55.1325V1.34326H55.1191Z" fill="#0A243A"/>
  <path d="M76.8104 1.34326H86.3556V3.65737H79.2279V7.66187H85.4861V9.8402H79.2279V16.6279H76.8037V1.34326H76.8104Z" fill="#0A243A"/>
  <path d="M96.6621 1.34326H99.0863V10.2497C99.0863 10.758 99.1071 11.2881 99.1533 11.8145C99.1902 12.3134 99.3231 12.7985 99.5435 13.2384C99.7704 13.6746 100.105 14.0341 100.509 14.2767C101.086 14.5458 101.708 14.6846 102.337 14.6846C102.966 14.6846 103.588 14.5458 104.165 14.2767C104.57 14.0341 104.904 13.6746 105.131 13.2384C105.348 12.7971 105.481 12.3128 105.521 11.8145C105.568 11.2881 105.588 10.7689 105.588 10.2497V1.34326H108.012V11.1254C108.029 12.0006 107.893 12.8715 107.61 13.6915C107.358 14.3877 106.965 15.0138 106.459 15.5235C105.941 16.0264 105.329 16.4032 104.665 16.6286C103.15 17.1132 101.538 17.1132 100.023 16.6286C99.3577 16.4062 98.7454 16.029 98.2288 15.5235C97.7199 15.0172 97.3262 14.3902 97.0784 13.6915C96.796 12.8713 96.6595 12.0006 96.6762 11.1254V1.34326H96.6621Z" fill="#0A243A"/>
  <path d="M119.317 1.34326H121.742V14.3138H128.773V16.6279H119.324V1.34326H119.317Z" fill="#0A243A"/>
  <path d="M145.276 0.617188H143.242V7.56606H145.276V0.617188Z" fill="#97A8D5"/>
  <path d="M152 7.89062H145.584V10.0929H152V7.89062Z" fill="#00A3DF"/>
  <path d="M142.941 7.89062H136.525V10.0929H142.941V7.89062Z" fill="#427BBF"/>
  <path d="M145.276 10.4336H143.242V17.3825H145.276V10.4336Z" fill="black"/>
  <path d="M145.262 7.91016H143.27V10.0682H145.262V7.91016Z" fill="white"/>
</svg>